<svg xmlns:dc="http://purl.org/dc/elements/1.1/" xmlns:cc="http://creativecommons.org/ns#" xmlns:rdf="http://www.w3.org/1999/02/22-rdf-syntax-ns#" xmlns:svg="http://www.w3.org/2000/svg" xmlns="http://www.w3.org/2000/svg" xmlns:xlink="http://www.w3.org/1999/xlink" id="svg291430" version="1.1" viewBox="290.38 348.2 443.23 71.6">
  <metadata id="metadata291436">
    <rdf:rdf>
      <cc:work rdf:about="">
        <dc:format>image/svg+xml</dc:format>
        <dc:type rdf:resource="http://purl.org/dc/dcmitype/StillImage"/>
      </cc:work>
    </rdf:rdf>
  </metadata>
  <defs id="defs291434"/>
  <linearGradient spreadMethod="pad" y2="30%" x2="-10%" y1="120%" x1="30%" id="3d_gradient2-logo-25978fea-6e5e-4d52-a859-0ea8360c7a96">
    <stop id="stop291411" stop-opacity="1" stop-color="#ffffff" offset="0%"/>
    <stop id="stop291413" stop-opacity="1" stop-color="#000000" offset="100%"/>
  </linearGradient>
  <linearGradient gradientTransform="rotate(-30)" spreadMethod="pad" y2="30%" x2="-10%" y1="120%" x1="30%" id="3d_gradient3-logo-25978fea-6e5e-4d52-a859-0ea8360c7a96">
    <stop id="stop291416" stop-opacity="1" stop-color="#ffffff" offset="0%"/>
    <stop id="stop291418" stop-opacity="1" stop-color="#cccccc" offset="50%"/>
    <stop id="stop291420" stop-opacity="1" stop-color="#000000" offset="100%"/>
  </linearGradient>
  <g id="logo-group">
    <image xlink:href="" id="container" x="272" y="144" width="480" height="480" style="display: none;" transform="translate(0 0)"/>
    <g id="logo-center" transform="translate(240.39434999999992 0)">
      <image xlink:href="" id="icon_container" x="0" y="0" style="display: none;"/>
      <g id="slogan" style="font-style:normal;font-weight:300;font-size:32px;line-height:1;font-family:'Montserrat Light Alt1';font-variant-ligatures:none;text-align:center;text-anchor:middle" transform="translate(0 0)"/>
      <g id="title" style="font-style:normal;font-weight:300;font-size:72px;line-height:1;font-family:'Montserrat Light Alt1';font-variant-ligatures:none;text-align:center;text-anchor:middle" transform="translate(0 0)">
        <path id="path291439" style="font-style:normal;font-weight:300;font-size:72px;line-height:1;font-family:'Montserrat Light Alt1';font-variant-ligatures:none;text-align:center;text-anchor:middle" d="m 388.86875,-27.216 h -32.616 v 3.24 h 32.616 z m 0,-23.184 h -32.616 v 3.312 h 32.616 z m -32.616,47.088 V 0 h 32.616 v -3.312 z" stroke-width="0" stroke-linejoin="miter" stroke-miterlimit="2" fill="#000000" stroke="#000000" transform="translate(0 318.52) translate(50 30.20000000000001) scale(1.4) translate(-356.25275 50.4)"/>
        <path id="path291441" style="font-style:normal;font-weight:300;font-size:72px;line-height:1;font-family:'Montserrat Light Alt1';font-variant-ligatures:none;text-align:center;text-anchor:middle" d="m 435.392,0 h 4.32 l -19.368,-26.064 18,-24.336 H 434.24 L 418.184,-28.728 402.128,-50.4 h -4.32 l 18,24.408 L 396.44,0 h 4.32 l 17.28,-23.328 z" stroke-width="0" stroke-linejoin="miter" stroke-miterlimit="2" fill="#000000" stroke="#000000" transform="translate(0 318.52) translate(106.26215000000002 30.20000000000001) scale(1.4) translate(-396.44 50.4)"/>
        <path id="path291443" style="font-style:normal;font-weight:300;font-size:72px;line-height:1;font-family:'Montserrat Light Alt1';font-variant-ligatures:none;text-align:center;text-anchor:middle" d="m 466.23162,-50.4 h -3.672 L 439.37563,0 h 3.95999 l 21.024,-46.368 21.096,46.368 h 3.96 z" stroke-width="0" stroke-linejoin="miter" stroke-miterlimit="2" fill="#000000" stroke="#000000" transform="translate(0 318.52) translate(166.37203200000005 30.20000000000001) scale(1.4) translate(-439.37563 50.4)"/>
        <path id="path291445" style="font-style:normal;font-weight:300;font-size:72px;line-height:1;font-family:'Montserrat Light Alt1';font-variant-ligatures:none;text-align:center;text-anchor:middle" d="m 531.54125,-45.864 c -3.6,-3.024 -8.568,-4.536 -14.904,-4.536 h -18.072 v 3.312 h 18.072 c 5.328,0 9.432,1.224 12.312,3.6 2.808,2.376 4.248,5.76 4.248,10.08 0,4.392 -1.44,7.776 -4.248,10.08 -2.88,2.376 -6.984,3.528 -12.312,3.528 h -18.072 V 0 h 3.672 v -16.488 h 14.4 c 6.336,0 11.304,-1.44 14.904,-4.464 3.6,-3.024 5.4,-7.128 5.4,-12.456 0,-5.256 -1.8,-9.432 -5.4,-12.456 z" stroke-width="0" stroke-linejoin="miter" stroke-miterlimit="2" fill="#000000" stroke="#000000" transform="translate(0 318.52) translate(249.23750000000007 30.20000000000001) scale(1.4) translate(-498.56525 50.4)"/>
        <path id="path291447" style="font-style:normal;font-weight:300;font-size:72px;line-height:1;font-family:'Montserrat Light Alt1';font-variant-ligatures:none;text-align:center;text-anchor:middle" d="m 565.23162,-50.4 h -3.672 L 538.37563,0 h 3.96 l 21.024,-46.368 21.096,46.368 h 3.95999 z" stroke-width="0" stroke-linejoin="miter" stroke-miterlimit="2" fill="#000000" stroke="#000000" transform="translate(0 318.52) translate(304.9720320000001 30.20000000000001) scale(1.4) translate(-538.37563 50.4)"/>
        <path id="path291449" style="font-style:normal;font-weight:300;font-size:72px;line-height:1;font-family:'Montserrat Light Alt1';font-variant-ligatures:none;text-align:center;text-anchor:middle" d="m 600.22925,-1.512 c 3.312,1.296 6.84,1.872 10.584,1.872 3.96,0 7.344,-0.576 10.08,-1.8 2.736,-1.152 4.752,-2.808 6.048,-4.824 1.296,-2.016 2.016,-4.248 2.016,-6.696 0,-2.952 -0.792,-5.328 -2.376,-7.056 -1.584,-1.728 -3.456,-3.096 -5.616,-3.96 -2.232,-0.864 -5.184,-1.728 -8.856,-2.664 -3.312,-0.792 -5.976,-1.584 -7.848,-2.304 -1.944,-0.72 -3.528,-1.728 -4.824,-3.096 -1.296,-1.296 -1.944,-3.096 -1.944,-5.4 0,-2.952 1.152,-5.4 3.6,-7.272 2.376,-1.872 5.904,-2.808 10.584,-2.808 2.304,0 4.68,0.36 7.128,1.08 2.448,0.72 4.68,1.8 6.696,3.168 l 1.368,-2.952 c -2.016,-1.368 -4.32,-2.448 -6.984,-3.312 -2.736,-0.792 -5.472,-1.224 -8.208,-1.224 -4.032,0 -7.344,0.648 -10.008,1.8 -2.664,1.224 -4.608,2.88 -5.904,4.896 -1.296,2.016 -1.944,4.248 -1.944,6.696 0,3.024 0.72,5.472 2.304,7.272 1.584,1.8 3.456,3.096 5.688,3.96 2.232,0.864 5.184,1.8 8.928,2.664 3.24,0.792 5.832,1.512 7.776,2.232 1.872,0.72 3.528,1.8 4.824,3.096 1.296,1.368 1.944,3.168 1.944,5.4 0,2.952 -1.224,5.328 -3.672,7.128 -2.448,1.872 -6.12,2.736 -10.872,2.736 -3.312,0 -6.48,-0.576 -9.504,-1.728 -3.024,-1.152 -5.4,-2.736 -7.128,-4.608 l -1.656,2.736 c 1.872,2.016 4.464,3.672 7.776,4.968 z" stroke-width="0" stroke-linejoin="miter" stroke-miterlimit="2" fill="#000000" stroke="#000000" transform="translate(0 318.52) translate(380.6807000000002 29.696000000000005) scale(1.4) translate(-592.45325 50.76)"/>
        <path id="path291451" style="font-style:normal;font-weight:300;font-size:72px;line-height:1;font-family:'Montserrat Light Alt1';font-variant-ligatures:none;text-align:center;text-anchor:middle" d="m 644.10425,-1.512 c 3.312,1.296 6.84,1.872 10.584,1.872 3.96,0 7.344,-0.576 10.08,-1.8 2.736,-1.152 4.752,-2.808 6.048,-4.824 1.296,-2.016 2.016,-4.248 2.016,-6.696 0,-2.952 -0.792,-5.328 -2.376,-7.056 -1.584,-1.728 -3.456,-3.096 -5.616,-3.96 -2.232,-0.864 -5.184,-1.728 -8.856,-2.664 -3.312,-0.792 -5.976,-1.584 -7.848,-2.304 -1.944,-0.72 -3.528,-1.728 -4.824,-3.096 -1.296,-1.296 -1.944,-3.096 -1.944,-5.4 0,-2.952 1.152,-5.4 3.6,-7.272 2.376,-1.872 5.904,-2.808 10.584,-2.808 2.304,0 4.68,0.36 7.128,1.08 2.448,0.72 4.68,1.8 6.696,3.168 l 1.368,-2.952 c -2.016,-1.368 -4.32,-2.448 -6.984,-3.312 -2.736,-0.792 -5.472,-1.224 -8.208,-1.224 -4.032,0 -7.344,0.648 -10.008,1.8 -2.664,1.224 -4.608,2.88 -5.904,4.896 -1.296,2.016 -1.944,4.248 -1.944,6.696 0,3.024 0.72,5.472 2.304,7.272 1.584,1.8 3.456,3.096 5.688,3.96 2.232,0.864 5.184,1.8 8.928,2.664 3.24,0.792 5.832,1.512 7.776,2.232 1.872,0.72 3.528,1.8 4.824,3.096 1.296,1.368 1.944,3.168 1.944,5.4 0,2.952 -1.224,5.328 -3.672,7.128 -2.448,1.872 -6.12,2.736 -10.872,2.736 -3.312,0 -6.48,-0.576 -9.504,-1.728 -3.024,-1.152 -5.4,-2.736 -7.128,-4.608 l -1.656,2.736 c 1.872,2.016 4.464,3.672 7.776,4.968 z" stroke-width="0" stroke-linejoin="miter" stroke-miterlimit="2" fill="#000000" stroke="#000000" transform="translate(0 318.52) translate(442.1057000000001 29.696000000000005) scale(1.4) translate(-636.32825 50.76)"/>
      </g>
      <image xlink:href="" id="icon" x="0" y="0" style="display: none;"/>
    </g>
  </g>
</svg>